<svg width="40" height="40" viewBox="0 0 40 40" fill="none" xmlns="http://www.w3.org/2000/svg">
<rect width="40" height="40" rx="8" fill="#1DB954"/>
<circle cx="20" cy="20" r="14" fill="#191414"/>
<path d="M26.5 16c-4.5-2-12-2.2-16.5 0.5C9.5 17 9 17.5 9.5 18s1.5-0.5 2-1c4-1.5 10-1.5 14 0 0.5 0.2 1.5 1 2 0.5s0-1-0.5-1.5z" fill="#1DB954"/>
<path d="M26 19.5c-4-1.5-10.5-1.5-14.5 0.5-0.5 0.5-1 0.5-1.5 0s0-1 0.5-1.5c5-2.5 12-2.5 17 0 0.5 0.5 0.5 1 0 1.5s-1 0-1.5-0.5z" fill="#1DB954"/>
<path d="M25.5 23c-3.5-1-9-1-12.5 0.5-0.5 0.2-1 0.2-1.2-0.3s0.3-0.8 0.7-1c4.5-2 11-2 15.5 0 0.4 0.2 0.7 0.7 0.3 1.2s-0.8 0.1-1.3-0.4z" fill="#1DB954"/>
</svg>